<svg id="Modo_de_aislamiento" data-name="Modo de aislamiento" xmlns="http://www.w3.org/2000/svg" viewBox="0 0 133.21 111.78"><defs><style>.cls-1{fill:#004d71;}.cls-2{fill:#fff;}</style></defs><path class="cls-1" d="M783.47,1961.06a34.48,34.48,0,0,0-56.15-38.65,30.59,30.59,0,0,0-44,19.86,35.9,35.9,0,0,0,22.18,68.29,30.58,30.58,0,0,0,48.58,1.47,30.58,30.58,0,0,0,29.36-51Z" transform="translate(-658.9 -1911.54)"/><path class="cls-2" d="M725.8,1941.67c10.11,0,17.52,5.06,17.52,15.53,0,8.48-6.27,13.9-15.31,14.11l-.43,5.06h-14l-.43-15.1h6c5.49,0,8.84-1.07,8.69-4.14a2.46,2.46,0,0,0-2.49-2.63c-2.07,0-2.78,1.49-2.78,3.2H707.7C707.35,1949.23,713.05,1941.67,725.8,1941.67Zm-5,55.64c-5.63,0-9.12-3.42-9.12-7.76s3.49-7.91,9.12-7.91,9.05,3.49,9.05,7.91S726.37,1997.31,720.81,1997.31Z" transform="translate(-658.9 -1911.54)"/></svg>