<?xml version="1.0" encoding="utf-8"?>
<!-- Generator: Adobe Illus1trator 25.4.1, SVG Export Plug-In . SVG Version: 6.00 Build 0)  -->
<svg version="1.1" id="Capa_1" xmlns="http://www.w3.org/2000/svg" xmlns:xlink="http://www.w3.org/1999/xlink" x="0px" y="0px"
	 viewBox="0 0 211.2 364.4" style="enable-background:new 0 0 211.2 364.4;" xml:space="preserve">
<style type="text/css">
	.s1t0{fill:#E6E6E6;}
	.s1t1{fill:#CCCCCC;}
	.s1t2{fill:#031231;}
	.s1t3{fill:#021433;}
	.s1t4{fill:#B3B3B3;}
	.s1t5{fill:#031332;}
	.s1t6{fill:#006FBA;}
	.s1t7{fill:#00437B;}
	.s1t8{fill:#009ADA;}
	.s1t9{fill:none;stroke:#021433;stroke-width:0.87;stroke-miterlimit:10;}
	.s1t10{fill:none;stroke:#021433;stroke-linecap:round;stroke-linejoin:round;}
	.s1t11{opacity:0.5;}
	.s1t12{fill:#021433;stroke:#021433;stroke-linecap:round;stroke-linejoin:round;}
	.s1t13{fill:none;stroke:#021433;stroke-linecap:round;stroke-linejoin:round;stroke-dasharray:2.12,5.31;}
	.s1t14{fill:none;stroke:#021433;stroke-linecap:round;stroke-linejoin:round;stroke-dasharray:1.92,4.8;}
	.s1t15{fill:none;stroke:#021433;stroke-linecap:round;stroke-linejoin:round;stroke-dasharray:2,5;}
</style>
<g id="base">
	<path class="s1t0" d="M193.1,287.7l-75.8-28l-12.1-7c-2.7-1.6-6.8-1.7-9.1-0.4l-39.9,23l-23.1,10.6l-7-3.7v7l0,0
		c-0.1,1.1,0.6,2.2,2.2,3.1l80.9,46.9c2.7,1.5,6.8,1.7,9.1,0.4l73.2-42.2c1-0.4,1.6-1.4,1.6-2.4l0,0V287.7z"/>
	<path class="s1t1" d="M114.1,340.5c1.5,0.1,2.9-0.2,4.2-0.9l73.2-42.2c1-0.4,1.6-1.4,1.6-2.4l0,0v-7.2l-72.8-27l-6.4-2.6
		L114.1,340.5z"/>
	<path class="s1t2" d="M190.6,297.8l0.9-0.5c1-0.4,1.6-1.4,1.6-2.4l0,0v-7.2l-2.5-0.8V297.8z"/>
	<path class="s1t3" d="M114.4,340.8c-1.8,0-3.7-0.4-5.3-1.3l-80.9-46.9c-1.5-0.9-2.4-2.1-2.4-3.3v-0.1v-7c0-0.1,0.1-0.2,0.1-0.3
		c0.1,0,0.2,0,0.3,0l6.8,3.7l23-10.5l39.9-23c2.4-1.4,6.6-1.2,9.4,0.4l12.2,7l75.7,28c0.1,0,0.2,0.2,0.2,0.3v7.3
		c0,1.1-0.7,2.2-1.7,2.6l-73.2,42.2C117.3,340.5,115.8,340.8,114.4,340.8z M26.4,289.1v0.1c-0.1,1,0.7,2,2,2.8l80.9,46.9
		c2.6,1.5,6.5,1.7,8.8,0.4l73.2-42.2c0.8-0.4,1.4-1.2,1.4-2.1v-0.1V288l-75.4-28l-12.2-7c-2.6-1.5-6.5-1.7-8.8-0.4l-39.9,23
		l-23.1,10.5c-0.1,0-0.2,0-0.3,0l-6.5-3.5L26.4,289.1z"/>
	<path class="s1t4" d="M191.6,290l-73.2,42.2c-2.3,1.3-6.4,1.2-9.1-0.4L28.4,285c-2.7-1.5-3-3.9-0.6-5.2l73.2-42.2
		c2.3-1.3,6.4-1.2,9.1,0.4l80.9,46.9C193.6,286.4,193.9,288.7,191.6,290z"/>
	<path class="s1t3" d="M114.4,333.5c-1.8,0-3.7-0.4-5.3-1.3l-80.9-46.9c-1.5-0.9-2.4-2-2.4-3.2c0.1-1.1,0.7-2.1,1.7-2.5l73.2-42.2
		c2.4-1.4,6.6-1.2,9.4,0.4l80.9,46.9c1.5,0.9,2.4,2,2.4,3.2c-0.1,1.1-0.7,2.1-1.7,2.5l0,0l-73.2,42.2
		C117.2,333.2,115.8,333.5,114.4,333.5z M104.9,236.9c-1.3,0-2.6,0.3-3.8,0.9L27.9,280c-0.8,0.4-1.3,1.1-1.4,2
		c0.2,1.2,1,2.2,2.1,2.7l80.9,46.9c2.6,1.5,6.5,1.7,8.8,0.4l73.2-42.2c0.8-0.4,1.3-1.1,1.4-2c-0.2-1.2-1-2.2-2.1-2.7l-80.9-46.9
		C108.3,237.3,106.6,236.9,104.9,236.9z"/>
	<path class="s1t0" d="M187.1,53.5L131.3,34l-12.5-7.2c-2.8-1.6-7-1.8-9.3-0.4L80.2,43.2l-23.8,11l-16-0.7v231.7l0,0
		c-0.1,1.1,0.7,2.3,2.2,3.2l66.1,38.1c2.8,1.6,7,1.8,9.3,0.4l67.4-38.9c1-0.4,1.6-1.4,1.6-2.5l0,0L187.1,53.5z"/>
	<path class="s1t1" d="M113.7,54v273.8c1.5,0.1,3-0.2,4.3-0.9l67.4-38.9c1-0.4,1.6-1.4,1.6-2.5l0,0V54H113.7z"/>
	<path class="s1t5" d="M185.3,288l0.2-0.1c1-0.4,1.6-1.4,1.6-2.5l0,0V53.5l-1.8-0.6V288z"/>
	<path class="s1t5" d="M41.6,53.5h-1.3v231.6l0,0c0,1,0.4,1.9,1.2,2.5L41.6,53.5z"/>
	<path class="s1t3" d="M114,328.1c-1.9,0-3.8-0.5-5.4-1.4l-66-38.1c-1.6-0.9-2.5-2.1-2.4-3.4v-0.1V53.4c0-0.1,0-0.2,0.1-0.2
		c0.1-0.1,0.1-0.1,0.2-0.1l15.9,0.7L80.1,43l29.2-16.9c2.5-1.4,6.8-1.2,9.7,0.4l12.5,7.2l55.8,19.4c0.1,0,0.2,0.2,0.2,0.3v231.9l0,0
		c0,1.2-0.7,2.2-1.8,2.7l-67.4,38.9C116.9,327.8,115.5,328.1,114,328.1z M40.7,285v0.1c-0.1,1,0.7,2.1,2.1,2.9l66.1,38.1
		c2.7,1.5,6.7,1.7,9.1,0.4l67.4-38.9c0.9-0.4,1.4-1.3,1.4-2.2v-0.1V53.7l-55.6-19.4L118.6,27c-2.7-1.5-6.7-1.7-9-0.4L80.3,43.5
		L56.5,54.4h-0.1l-15.7-0.7V285z"/>
	<path class="s1t6" d="M193.1,46.2l-60.4-21.1l-13.5-7.8c-3-1.7-7.5-1.9-10.1-0.4L77.6,35.1L51.8,46.9l-17.3-0.8v13l0,0
		c-0.1,1.2,0.7,2.5,2.4,3.5l71.4,41.2c3,1.7,7.5,1.9,10.1,0.4l72.9-42c1.1-0.5,1.7-1.5,1.7-2.7l0,0L193.1,46.2z"/>
	<path class="s1t5" d="M37.1,46l-2.6-0.1v13l0,0c-0.1,1.2,0.7,2.5,2.4,3.5l0.2,0.1L37.1,46z"/>
	<path class="s1t7" d="M119.2,17.3c-1.7-0.9-3.5-1.4-5.4-1.4v89.4c1.6,0.1,3.2-0.3,4.7-1l72.9-42.1c1.1-0.5,1.7-1.5,1.7-2.7l0,0V46.2
		l-60.3-21.1L119.2,17.3z"/>
	<path class="s1t5" d="M190.3,62.6l1.1-0.6c1.1-0.5,1.7-1.5,1.7-2.7l0,0V46l-2.8-1V62.6z"/>
	<path class="s1t3" d="M114.1,105.6c-2.1,0-4.1-0.5-5.9-1.5L36.8,62.9c-1.7-1-2.6-2.3-2.6-3.7v-0.1v-13c0-0.1,0-0.2,0.1-0.2
		c0.1-0.1,0.1-0.1,0.2-0.1l17.2,0.8l25.7-11.8L109,16.6c2.7-1.5,7.3-1.4,10.4,0.4l13.5,7.8l60.3,21.1c0.1,0,0.2,0.2,0.2,0.3v13.3
		c0,1.3-0.7,2.4-1.9,2.9l-72.9,42.1C117.3,105.3,115.7,105.6,114.1,105.6z M34.8,59L34.8,59c-0.1,1.2,0.8,2.4,2.3,3.3l71.4,41.2
		c2.9,1.7,7.3,1.9,9.8,0.4l72.9-42.1c1-0.4,1.6-1.4,1.6-2.4v-0.1v-13l-60.2-21l-13.5-7.8c-2.9-1.7-7.3-1.9-9.8-0.4L77.7,35.4
		L52,47.2h-0.1l-17-0.8L34.8,59z"/>
	<path class="s1t8" d="M191.4,48.8l-72.9,42.1c-2.6,1.5-7.1,1.3-10.1-0.4L37,49.2c-3-1.7-3.3-4.3-0.7-5.8l72.9-42.1
		c2.6-1.5,7.1-1.3,10.1,0.4L190.7,43C193.7,44.7,194,47.3,191.4,48.8z"/>
	<path class="s1t3" d="M114.1,92.2c-2,0-4.1-0.5-5.9-1.5L36.8,49.5c-1.7-1-2.6-2.3-2.6-3.6c0.1-1.2,0.8-2.3,1.9-2.8L109,1
		c2.7-1.5,7.3-1.4,10.4,0.4l71.4,41.3c1.7,1,2.6,2.3,2.6,3.6c-0.1,1.2-0.8,2.3-1.9,2.8l0,0l-72.9,42.1
		C117.3,91.9,115.7,92.2,114.1,92.2z M113.5,0.6c-1.5,0-2.9,0.3-4.2,1L36.4,43.7c-0.9,0.4-1.5,1.3-1.6,2.3c0,1.1,0.8,2.2,2.3,3
		l71.4,41.3c2.9,1.7,7.3,1.9,9.8,0.4l72.9-42.1l0.1,0.3l-0.1-0.3c0.9-0.4,1.5-1.3,1.6-2.3c0-1.1-0.9-2.2-2.3-3L119.1,2
		C117.4,1.1,115.5,0.6,113.5,0.6z"/>
	<path class="s1t3" d="M113.9,86c-0.4,0-0.7-0.1-1-0.3L45.5,46.8C45.2,46.7,45,46.4,45,46c0-0.3,0.2-0.5,0.4-0.7l67.6-39
		c0.6-0.3,1.3-0.3,1.9,0.1l67.3,38.9c0.3,0.1,0.5,0.4,0.5,0.8c0,0.3-0.2,0.5-0.4,0.7l-67.6,39C114.5,85.9,114.2,86,113.9,86z
		 M113.8,6.8c-0.2,0-0.4,0-0.5,0.1l-67.6,39c-0.1,0-0.1,0.1-0.1,0.1s0.1,0.2,0.2,0.2l67.3,38.9c0.4,0.2,0.9,0.2,1.3,0.1l67.6-39l0,0
		c0.1,0,0.1-0.1,0.1-0.1s-0.1-0.2-0.2-0.2L114.5,7C114.3,6.9,114,6.8,113.8,6.8L113.8,6.8z"/>
	<path class="s1t6" d="M45.7,46.6l10.5,6.1l56.9-32.9c0.5-0.2,1.1-0.2,1.6,0.1l56.8,32.8l10.6-6.1c0.4-0.2,0.4-0.6-0.1-0.9l-67.3-39
		c-0.5-0.3-1.1-0.3-1.6-0.1l-67.6,39C45.1,45.9,45.2,46.3,45.7,46.6z"/>
	<path class="s1t2" d="M182,45.6l-3-1.7v4.5l3.1-1.8C182.5,46.3,182.5,45.9,182,45.6z"/>
	<path class="s1t7" d="M113.8,6.6c-0.3,0-0.5,0-0.7,0.2l-67.6,39c-0.4,0.2-0.4,0.6,0.1,0.9l10.5,6.1L113,19.9
		c0.2-0.1,0.5-0.2,0.7-0.2L113.8,6.6L113.8,6.6z"/>
	<path class="s1t5" d="M48.8,43.8l-3.2,1.9c-0.4,0.2-0.4,0.6,0.1,0.9l3.1,1.8C48.8,48.4,48.8,43.8,48.8,43.8z"/>
	<path class="s1t3" d="M171.5,53c-0.1,0-0.1,0-0.1,0l-56.8-32.8c-0.4-0.2-0.9-0.2-1.3-0.1l-57,32.8c-0.1,0.1-0.2,0.1-0.3,0l-10.5-6.1
		l0,0C45.2,46.7,45,46.4,45,46c0-0.3,0.2-0.5,0.4-0.7l67.6-39c0.6-0.3,1.3-0.3,1.9,0.1l67.3,38.9c0.3,0.1,0.5,0.4,0.5,0.8
		c0,0.3-0.2,0.5-0.4,0.7l-10.6,6.1C171.6,53,171.6,53,171.5,53z M45.8,46.3l10.4,6L113,19.5c0.6-0.3,1.3-0.3,1.9,0.1l56.7,32.7
		l10.5-6c0.1,0,0.1-0.1,0.1-0.1S182.1,46,182,46L114.5,7c-0.4-0.2-0.9-0.2-1.3-0.1l-67.6,39c-0.1,0-0.1,0.1-0.1,0.1
		S45.6,46.2,45.8,46.3L45.8,46.3z"/>
	<line class="s1t9" x1="114" y1="328.1" x2="114" y2="105.2"/>
	<line class="s1t10" x1="39.7" y1="65.2" x2="40.7" y2="65.2"/>
	<line class="s1t10" x1="69.9" y1="304.8" x2="70.9" y2="304.8"/>
</g>
<g id="luz">
	<g class="s1t11">
		
			<image style="overflow:visible;enable-background:new    ;" width="147" height="337" xlink:href="CD9E2221431D3FFC.png"  transform="matrix(0.9964 0 0 0.9964 4.0331 28.5331)">
		</image>
	</g>
</g>
<g id="altura">
	<line class="s1t10" x1="3.7" y1="304.8" x2="3.7" y2="65.2"/>
	<polygon class="s1t12" points="0.5,68.8 6.8,68.8 3.7,65.2 	"/>
	<polygon class="s1t12" points="6.8,301.2 0.5,301.2 3.7,304.8 	"/>
	<line class="s1t10" x1="3.7" y1="65.2" x2="4.7" y2="65.2"/>
	<line id="puntos" class="s1t13" x1="10" y1="65.2" x2="37.1" y2="65.2"/>
	<line class="s1t10" x1="3.7" y1="304.8" x2="4.7" y2="304.8"/>
	<line id="puntos_00000142147218233789237670000005656125345660874172_" class="s1t14" x1="9.5" y1="304.8" x2="67.5" y2="304.8"/>
</g>
<g id="largo">
	<line class="s1t10" x1="139.1" y1="342.9" x2="210.7" y2="300.1"/>
	<polygon class="s1t12" points="143.8,344 140.8,338.4 139.1,342.9 	"/>
	<polygon class="s1t12" points="205.9,299.5 209.5,304.7 210.7,300.1 	"/>
	
		<line id="puntos_00000171696078202953499730000004038943915114458258_" class="s1t15" x1="113.7" y1="327.8" x2="139.1" y2="342.9"/>
	
		<line id="puntos_00000118354917035062606040000009779518561322040993_" class="s1t15" x1="210.7" y1="300.1" x2="186.6" y2="285.4"/>
</g>
<g id="ancho">
	<line class="s1t10" x1="46.6" y1="157.5" x2="108" y2="192.9"/>
	<polygon class="s1t12" points="45.1,159.9 47.9,155.2 43.9,155.9 	"/>
	<polygon class="s1t12" points="109.3,190.6 106.7,195.3 110.7,194.4 	"/>
</g>
</svg>
