<svg id="Layer_1" data-name="Layer 1" xmlns="http://www.w3.org/2000/svg" xmlns:xlink="http://www.w3.org/1999/xlink" viewBox="0 0 132.98 63.08"><defs><style>.cls-1{fill:url(#linear-gradient);}.cls-2{fill:#00587b;}.cls-3{fill:url(#linear-gradient-2);}</style><linearGradient id="linear-gradient" x1="47.34" y1="36.4" x2="62.93" y2="63.9" gradientUnits="userSpaceOnUse"><stop offset="0" stop-color="#65c4db"/><stop offset="1" stop-color="#00587b"/></linearGradient><linearGradient id="linear-gradient-2" x1="54.88" y1="45.36" x2="51.86" y2="30.91" gradientUnits="userSpaceOnUse"><stop offset="0.64" stop-color="#cce9f3"/><stop offset="0.73" stop-color="#a9ddeb"/><stop offset="0.85" stop-color="#84cfe2"/><stop offset="0.94" stop-color="#6dc7dd"/><stop offset="1" stop-color="#65c4db"/></linearGradient></defs><path class="cls-1" d="M27,41.71V33.1A6.08,6.08,0,0,1,33.07,27h45.1v4.53H66.09a4.42,4.42,0,0,0-3,1.08,14.35,14.35,0,0,0-2.6,3.42c-.25.41-8.73,14.77-11.63,19.67-.36.6-.76.81-1.2.64a1.6,1.6,0,0,1-.82-.76c-.27-.43-4.47-7.84-5.89-10.4a9.27,9.27,0,0,0-2-2.31c-.88-.78-2.35-1.18-4.42-1.18Zm8.49,5.9a2.58,2.58,0,0,0-2.55-1.25H27V62.63a5.82,5.82,0,0,0,1.79,4.31,5.88,5.88,0,0,0,4.3,1.76H47.41Zm42.69-5.88v20.9A6.3,6.3,0,0,1,76.62,67a5.73,5.73,0,0,1-4.54,1.76H55.66c.25-.42,10.61-17.85,13.67-23.06a13.06,13.06,0,0,1,2.23-3,3.71,3.71,0,0,1,2.52-.87Z" transform="translate(-27 -27.02)"/><path class="cls-2" d="M140.09,41.66c-12.35,0-12.86,4.4-12.86,11.11v4.85c0,6.71.51,11.11,12.86,11.11S153,64.33,153,57.62V52.77C153,46.06,152.43,41.66,140.09,41.66ZM133.2,52.83c0-3.06-.4-6.53,6.89-6.53S147,49.77,147,52.83v4.73c0,3.06.4,6.53-6.89,6.53s-6.89-3.47-6.89-6.53Z" transform="translate(-27 -27.02)"/><rect class="cls-2" x="55.81" y="14.7" width="5.98" height="26.98"/><path class="cls-2" d="M108.56,64.05h-3.23c-3.82-.06-4-1-4-3.8V46.36h7.24V41.73h-7.24V36.55h-6v5.18H92.22v4.63h3.12V60.25c0,6.47,2.35,8.44,10.06,8.44h3.16Z" transform="translate(-27 -27.02)"/><path class="cls-2" d="M125.79,46.19a7.76,7.76,0,0,1,3.59-4.46h-2.93c-3.21,0-6.13-.18-8.48,2.22h-.25V41.72h-6v27h6V51.39c0-3.21,1.3-5.2,7.77-5.2Z" transform="translate(-27 -27.02)"/><path class="cls-3" d="M61.68,34.2a10.7,10.7,0,0,1,1.39-1.57,4.42,4.42,0,0,1,3-1.08H78.17V27H33.07A6.08,6.08,0,0,0,27,33.1v8.61h5.8A119.21,119.21,0,0,1,61.68,34.2Z" transform="translate(-27 -27.02)"/><path class="cls-2" d="M154.68,66a2.65,2.65,0,1,1,2.65,2.67A2.6,2.6,0,0,1,154.68,66Zm4.83,0a2.18,2.18,0,1,0-2.18,2.21A2.13,2.13,0,0,0,159.51,66ZM156.4,67.5a.09.09,0,0,1-.1-.1V64.65c0-.06,0-.09.1-.09h1.11c.64,0,1,.32,1,.87a.82.82,0,0,1-.58.82l.6,1.15c0,.06,0,.1-.06.1h-.39a.12.12,0,0,1-.12-.1l-.56-1.08h-.53s0,0,0,.06v1a.09.09,0,0,1-.1.1ZM158,65.43c0-.26-.15-.4-.48-.4h-.63s0,0,0,0v.71s0,.06,0,.06h.63C157.84,65.85,158,65.7,158,65.43Z" transform="translate(-27 -27.02)"/><path class="cls-2" d="M36.43,77.75l-4.06,10H31.16l-4.07-10h1.08a.44.44,0,0,1,.29.1.5.5,0,0,1,.17.23l2.81,7q.09.24.18.51a5.08,5.08,0,0,1,.15.59c.05-.21.1-.4.15-.59s.11-.35.17-.51l2.8-7a.48.48,0,0,1,.16-.22.46.46,0,0,1,.3-.11Z" transform="translate(-27 -27.02)"/><path class="cls-2" d="M38.83,78.46a.74.74,0,0,1-.08.34.77.77,0,0,1-.19.28.81.81,0,0,1-.29.19.77.77,0,0,1-.34.07.8.8,0,0,1-.34-.07.83.83,0,0,1-.27-.19.92.92,0,0,1-.19-.28.74.74,0,0,1-.07-.34.8.8,0,0,1,.07-.34.92.92,0,0,1,.19-.28.86.86,0,0,1,.27-.2,1,1,0,0,1,.34-.07.94.94,0,0,1,.34.07.84.84,0,0,1,.29.2.77.77,0,0,1,.19.28A.81.81,0,0,1,38.83,78.46Zm-.27,2.22v7H37.33v-7Z" transform="translate(-27 -27.02)"/><path class="cls-2" d="M46.23,77.48V87.72h-.74a.31.31,0,0,1-.33-.25l-.11-.86a4.08,4.08,0,0,1-1,.88,2.82,2.82,0,0,1-2.44.1,2.33,2.33,0,0,1-.84-.69,3.15,3.15,0,0,1-.53-1.12A5.65,5.65,0,0,1,40,84.22a4.89,4.89,0,0,1,.21-1.45,3.63,3.63,0,0,1,.59-1.16,2.8,2.8,0,0,1,1-.78,2.94,2.94,0,0,1,1.28-.28,2.53,2.53,0,0,1,1.11.22,2.7,2.7,0,0,1,.82.61v-3.9ZM45,82.35a2,2,0,0,0-.75-.65,2.19,2.19,0,0,0-.9-.18,1.76,1.76,0,0,0-1.51.7,3.24,3.24,0,0,0-.53,2,5,5,0,0,0,.12,1.18,2.15,2.15,0,0,0,.34.81,1.33,1.33,0,0,0,.57.46,1.79,1.79,0,0,0,.75.15,2,2,0,0,0,1.07-.28,2.84,2.84,0,0,0,.84-.79Z" transform="translate(-27 -27.02)"/><path class="cls-2" d="M49.17,82.09A3.21,3.21,0,0,1,50,81a1.81,1.81,0,0,1,1.19-.41,2,2,0,0,1,.43,0,1.11,1.11,0,0,1,.37.15l-.09.93a.2.2,0,0,1-.21.17,1.3,1.3,0,0,1-.29,0,1.82,1.82,0,0,0-.42,0,1.61,1.61,0,0,0-.6.1,1.24,1.24,0,0,0-.46.29,1.79,1.79,0,0,0-.37.47,4.24,4.24,0,0,0-.3.64v4.45H48v-7h.71a.38.38,0,0,1,.27.07.42.42,0,0,1,.11.27Z" transform="translate(-27 -27.02)"/><path class="cls-2" d="M54.44,78.46a.89.89,0,0,1-.07.34,1,1,0,0,1-.2.28.87.87,0,0,1-.28.19.84.84,0,0,1-.35.07.8.8,0,0,1-.34-.07.83.83,0,0,1-.27-.19.92.92,0,0,1-.19-.28.74.74,0,0,1-.07-.34.8.8,0,0,1,.07-.34.92.92,0,0,1,.19-.28.86.86,0,0,1,.27-.2,1,1,0,0,1,.34-.07,1,1,0,0,1,.35.07.9.9,0,0,1,.28.2,1,1,0,0,1,.2.28A1,1,0,0,1,54.44,78.46Zm-.27,2.22v7H52.94v-7Z" transform="translate(-27 -27.02)"/><path class="cls-2" d="M59,80.57a3.59,3.59,0,0,1,1.39.25,3,3,0,0,1,1.06.73,3.2,3.2,0,0,1,.67,1.15,5,5,0,0,1,0,3,3.24,3.24,0,0,1-.67,1.14,2.92,2.92,0,0,1-1.06.73,3.59,3.59,0,0,1-1.39.25,3.64,3.64,0,0,1-1.4-.25,2.84,2.84,0,0,1-1.06-.73,3.24,3.24,0,0,1-.67-1.14,4.81,4.81,0,0,1,0-3,3.2,3.2,0,0,1,.67-1.15,3,3,0,0,1,1.06-.73A3.64,3.64,0,0,1,59,80.57Zm0,6.28a1.81,1.81,0,0,0,1.56-.69,4,4,0,0,0,0-3.92,1.79,1.79,0,0,0-1.56-.7,2.19,2.19,0,0,0-.92.18,1.76,1.76,0,0,0-.66.52,2.32,2.32,0,0,0-.38.84,4.31,4.31,0,0,0-.13,1.12,3.29,3.29,0,0,0,.51,2A1.86,1.86,0,0,0,59,86.85Z" transform="translate(-27 -27.02)"/><path class="cls-2" d="M75,87.72H74a.44.44,0,0,1-.29-.09.5.5,0,0,1-.17-.23L72.57,85H68.09l-.93,2.4a.51.51,0,0,1-.16.23.46.46,0,0,1-.29.09h-1l4-10H71ZM72.19,84l-1.56-4q-.07-.18-.15-.42T70.33,79A5.67,5.67,0,0,1,70,80l-1.56,4Z" transform="translate(-27 -27.02)"/><path class="cls-2" d="M77,82.09A3.09,3.09,0,0,1,77.8,81,1.79,1.79,0,0,1,79,80.55a1.86,1.86,0,0,1,.42,0,1.11,1.11,0,0,1,.37.15l-.09.93a.2.2,0,0,1-.21.17,1.23,1.23,0,0,1-.28,0,1.91,1.91,0,0,0-.43,0,1.55,1.55,0,0,0-.59.1,1.28,1.28,0,0,0-.47.29,1.79,1.79,0,0,0-.37.47,3.44,3.44,0,0,0-.29.64v4.45H75.8v-7h.71a.41.41,0,0,1,.28.07.43.43,0,0,1,.1.27Z" transform="translate(-27 -27.02)"/><path class="cls-2" d="M86.23,80.68v9.43H85V86.67a3.48,3.48,0,0,1-1,.83,2.53,2.53,0,0,1-1.3.32,2.64,2.64,0,0,1-1.1-.23,2.33,2.33,0,0,1-.84-.69,3.15,3.15,0,0,1-.53-1.12A5.65,5.65,0,0,1,80,84.22a4.89,4.89,0,0,1,.21-1.45,3.63,3.63,0,0,1,.59-1.16,2.8,2.8,0,0,1,1-.78,2.94,2.94,0,0,1,1.28-.28,2.6,2.6,0,0,1,1.17.24,2.63,2.63,0,0,1,.84.69l.09-.55a.31.31,0,0,1,.33-.25ZM85,82.35a2,2,0,0,0-.74-.64,2.12,2.12,0,0,0-.91-.19,1.76,1.76,0,0,0-1.51.7,3.24,3.24,0,0,0-.53,2,5,5,0,0,0,.12,1.18,2.15,2.15,0,0,0,.34.81,1.33,1.33,0,0,0,.57.46,1.79,1.79,0,0,0,.75.15,2,2,0,0,0,1.07-.28,2.84,2.84,0,0,0,.84-.79Z" transform="translate(-27 -27.02)"/><path class="cls-2" d="M93.79,80.68v7h-.74a.31.31,0,0,1-.33-.25l-.1-.76a3.84,3.84,0,0,1-1,.82,2.76,2.76,0,0,1-1.31.31,2.46,2.46,0,0,1-1-.2,1.86,1.86,0,0,1-.75-.54,2.4,2.4,0,0,1-.44-.84,3.73,3.73,0,0,1-.15-1.09V80.68h1.23v4.49a1.91,1.91,0,0,0,.37,1.24,1.38,1.38,0,0,0,1.12.44,2.15,2.15,0,0,0,1-.26,3.48,3.48,0,0,0,.88-.72V80.68Z" transform="translate(-27 -27.02)"/><path class="cls-2" d="M97.13,78.46a.74.74,0,0,1-.07.34,1,1,0,0,1-.2.28.77.77,0,0,1-.28.19.84.84,0,0,1-.35.07.72.72,0,0,1-.33-.07.77.77,0,0,1-.28-.19.92.92,0,0,1-.19-.28.89.89,0,0,1-.07-.34,1,1,0,0,1,.07-.34.92.92,0,0,1,.19-.28.8.8,0,0,1,.28-.2.88.88,0,0,1,.33-.07,1,1,0,0,1,.35.07.8.8,0,0,1,.28.2,1,1,0,0,1,.2.28A.8.8,0,0,1,97.13,78.46Zm-.26,2.22v7H95.63v-7Z" transform="translate(-27 -27.02)"/><path class="cls-2" d="M100.87,87.84a1.71,1.71,0,0,1-1.29-.47A1.86,1.86,0,0,1,99.13,86V81.71h-.85a.28.28,0,0,1-.18-.06.27.27,0,0,1-.08-.21V81l1.16-.15.28-2.18a.35.35,0,0,1,.09-.17.32.32,0,0,1,.2-.06h.62v2.43h2v.89h-2v4.23a.86.86,0,0,0,.22.66.72.72,0,0,0,.55.22,1.11,1.11,0,0,0,.34,0l.25-.12.18-.11a.17.17,0,0,1,.12-.05.2.2,0,0,1,.18.11l.36.6a2.35,2.35,0,0,1-.77.46A2.52,2.52,0,0,1,100.87,87.84Z" transform="translate(-27 -27.02)"/><path class="cls-2" d="M109.18,86.74a2.56,2.56,0,0,1-.55.48,3.17,3.17,0,0,1-.69.34,4.58,4.58,0,0,1-.75.19,4.08,4.08,0,0,1-.77.07,3.49,3.49,0,0,1-1.35-.25,2.86,2.86,0,0,1-1.06-.72,3.36,3.36,0,0,1-.7-1.18,4.69,4.69,0,0,1-.25-1.61,4.16,4.16,0,0,1,.22-1.38,3.22,3.22,0,0,1,.65-1.11,3.13,3.13,0,0,1,1-.74,3.4,3.4,0,0,1,1.38-.26,3.2,3.2,0,0,1,1.17.21,2.55,2.55,0,0,1,.93.61,2.93,2.93,0,0,1,.62,1,3.73,3.73,0,0,1,.22,1.34.87.87,0,0,1-.06.39.27.27,0,0,1-.24.09h-4.71a4.34,4.34,0,0,0,.19,1.17,2.32,2.32,0,0,0,.45.82,1.78,1.78,0,0,0,.7.49,2.37,2.37,0,0,0,.9.17,2.78,2.78,0,0,0,.81-.11,4.67,4.67,0,0,0,.58-.23l.4-.24a.56.56,0,0,1,.29-.1.27.27,0,0,1,.23.11Zm-1-3.31a2.47,2.47,0,0,0-.12-.79,1.91,1.91,0,0,0-.36-.62,1.47,1.47,0,0,0-.57-.4,1.79,1.79,0,0,0-.75-.14A1.87,1.87,0,0,0,105,82a2.42,2.42,0,0,0-.65,1.43Z" transform="translate(-27 -27.02)"/><path class="cls-2" d="M115.52,81.93a.68.68,0,0,1-.12.12.21.21,0,0,1-.15,0A.42.42,0,0,1,115,82a2.48,2.48,0,0,0-.31-.19,2.43,2.43,0,0,0-.45-.19,2.38,2.38,0,0,0-1.58.1,1.78,1.78,0,0,0-.66.53,2.34,2.34,0,0,0-.4.84,4.21,4.21,0,0,0-.14,1.11,3.91,3.91,0,0,0,.15,1.13,2.44,2.44,0,0,0,.41.84,1.78,1.78,0,0,0,.65.51,2,2,0,0,0,.85.18,2,2,0,0,0,.75-.11,2.15,2.15,0,0,0,.48-.24l.32-.24a.38.38,0,0,1,.25-.1.3.3,0,0,1,.24.11l.35.46a2.4,2.4,0,0,1-.53.48,2.87,2.87,0,0,1-.62.34,3.58,3.58,0,0,1-.71.2,4.74,4.74,0,0,1-.75.06,3.14,3.14,0,0,1-1.23-.24,2.66,2.66,0,0,1-1-.71,3.35,3.35,0,0,1-.66-1.14,4.56,4.56,0,0,1-.23-1.53,4.86,4.86,0,0,1,.21-1.46,3.39,3.39,0,0,1,.64-1.15,2.93,2.93,0,0,1,1-.75,3.49,3.49,0,0,1,1.42-.27,3.36,3.36,0,0,1,1.31.24,3.08,3.08,0,0,1,1,.67Z" transform="translate(-27 -27.02)"/><path class="cls-2" d="M119.22,87.84a1.71,1.71,0,0,1-1.28-.47,1.86,1.86,0,0,1-.45-1.34V81.71h-.85a.28.28,0,0,1-.18-.06.24.24,0,0,1-.08-.21V81l1.15-.15.29-2.18a.28.28,0,0,1,.09-.17.29.29,0,0,1,.19-.06h.63v2.43h2v.89h-2v4.23a.86.86,0,0,0,.22.66.71.71,0,0,0,.55.22,1.16,1.16,0,0,0,.34,0l.25-.12.17-.11a.2.2,0,0,1,.13-.05.2.2,0,0,1,.18.11l.36.6a2.35,2.35,0,0,1-.77.46A2.57,2.57,0,0,1,119.22,87.84Z" transform="translate(-27 -27.02)"/><path class="cls-2" d="M124.79,80.57a3.62,3.62,0,0,1,1.39.25,3.14,3.14,0,0,1,1.06.73,3.35,3.35,0,0,1,.67,1.15,5,5,0,0,1,0,3,3.4,3.4,0,0,1-.67,1.14,3,3,0,0,1-1.06.73,4,4,0,0,1-2.79,0,2.84,2.84,0,0,1-1.06-.73,3.27,3.27,0,0,1-.68-1.14,5,5,0,0,1,0-3,3.22,3.22,0,0,1,.68-1.15,3,3,0,0,1,1.06-.73A3.64,3.64,0,0,1,124.79,80.57Zm0,6.28a1.84,1.84,0,0,0,1.56-.69,4,4,0,0,0,0-3.92,1.82,1.82,0,0,0-1.56-.7,2.19,2.19,0,0,0-.92.18,1.68,1.68,0,0,0-.66.52,2.51,2.51,0,0,0-.39.84,4.78,4.78,0,0,0-.13,1.12,3.29,3.29,0,0,0,.52,2A1.85,1.85,0,0,0,124.79,86.85Zm2-9.21-1.62,1.8a.77.77,0,0,1-.19.15.57.57,0,0,1-.24,0H124l1-1.68a.68.68,0,0,1,.21-.23.63.63,0,0,1,.34-.08Z" transform="translate(-27 -27.02)"/><path class="cls-2" d="M130.68,81.7a4.34,4.34,0,0,1,.49-.47,2.62,2.62,0,0,1,.54-.35,2.72,2.72,0,0,1,.62-.23,2.54,2.54,0,0,1,.7-.08,2.46,2.46,0,0,1,1,.19,1.85,1.85,0,0,1,.74.54,2.34,2.34,0,0,1,.45.84,3.8,3.8,0,0,1,.15,1.1v4.48h-1.24V83.24a1.84,1.84,0,0,0-.37-1.24,1.34,1.34,0,0,0-1.11-.45,2,2,0,0,0-1,.27,3.24,3.24,0,0,0-.88.71v5.19h-1.25v-7h.75a.3.3,0,0,1,.32.25Z" transform="translate(-27 -27.02)"/><path class="cls-2" d="M138.65,78.46a.74.74,0,0,1-.07.34.92.92,0,0,1-.19.28.91.91,0,0,1-.29.19.8.8,0,0,1-.34.07.88.88,0,0,1-.62-.26.75.75,0,0,1-.18-.28.74.74,0,0,1-.07-.34.8.8,0,0,1,.07-.34.75.75,0,0,1,.18-.28.8.8,0,0,1,.28-.2.94.94,0,0,1,.34-.07,1,1,0,0,1,.34.07.94.94,0,0,1,.29.2.92.92,0,0,1,.19.28A.8.8,0,0,1,138.65,78.46Zm-.26,2.22v7h-1.24v-7Z" transform="translate(-27 -27.02)"/><path class="cls-2" d="M145.13,81.93a.65.65,0,0,1-.11.12.24.24,0,0,1-.15,0,.4.4,0,0,1-.23-.09l-.31-.19a2.91,2.91,0,0,0-.46-.19,2,2,0,0,0-.65-.09,2,2,0,0,0-.92.19,1.74,1.74,0,0,0-.67.53,2.52,2.52,0,0,0-.4.84,4.23,4.23,0,0,0-.13,1.11,3.93,3.93,0,0,0,.14,1.13,2.63,2.63,0,0,0,.41.84,1.78,1.78,0,0,0,.65.51,2,2,0,0,0,.85.18,2,2,0,0,0,.75-.11,2.15,2.15,0,0,0,.48-.24,3.78,3.78,0,0,0,.32-.24.41.41,0,0,1,.26-.1.27.27,0,0,1,.23.11l.35.46a2.36,2.36,0,0,1-.52.48,3.2,3.2,0,0,1-.63.34,3.4,3.4,0,0,1-.71.2,4.56,4.56,0,0,1-.75.06,3.14,3.14,0,0,1-1.23-.24,2.83,2.83,0,0,1-1-.71,3.18,3.18,0,0,1-.65-1.14,5,5,0,0,1,0-3,3.23,3.23,0,0,1,.64-1.15,2.84,2.84,0,0,1,1-.75,3.48,3.48,0,0,1,1.41-.27,3.33,3.33,0,0,1,1.31.24,3.24,3.24,0,0,1,1,.67Z" transform="translate(-27 -27.02)"/><path class="cls-2" d="M149.52,80.57a3.62,3.62,0,0,1,1.39.25,3,3,0,0,1,1.06.73,3.35,3.35,0,0,1,.67,1.15,5,5,0,0,1,0,3,3.4,3.4,0,0,1-.67,1.14,2.92,2.92,0,0,1-1.06.73,4,4,0,0,1-2.79,0,2.84,2.84,0,0,1-1.06-.73,3.1,3.1,0,0,1-.67-1.14,4.81,4.81,0,0,1,0-3,3.06,3.06,0,0,1,.67-1.15,3,3,0,0,1,1.06-.73A3.64,3.64,0,0,1,149.52,80.57Zm0,6.28a1.84,1.84,0,0,0,1.56-.69,4,4,0,0,0,0-3.92,1.82,1.82,0,0,0-1.56-.7,2.19,2.19,0,0,0-.92.18,1.76,1.76,0,0,0-.66.52,2.51,2.51,0,0,0-.39.84,4.81,4.81,0,0,0-.12,1.12,3.29,3.29,0,0,0,.51,2A1.85,1.85,0,0,0,149.52,86.85Z" transform="translate(-27 -27.02)"/></svg>