<svg id="Capa_1" data-name="Capa 1" xmlns="http://www.w3.org/2000/svg" viewBox="0 0 694.47 192.09"><defs><style>.cls-1{fill:#5e7a10;}.cls-2{fill:#6c9119;}</style></defs><path class="cls-1" d="M236.25,701.36a147.78,147.78,0,0,0-29.12,2.89A198.23,198.23,0,0,0,33.67,602.1q-4,0-8,.15c-2.65-.1-5.3-.15-8-.15A198.23,198.23,0,0,0-155.73,704.25a147.86,147.86,0,0,0-29.12-2.89,147.05,147.05,0,0,0-136.69,92.82H372.93A147,147,0,0,0,236.25,701.36Z" transform="translate(321.54 -602.1)"/><path class="cls-2" d="M-127.66,662.46c17.75,36.06,71.93,62.3,136,62.3,75.6,0,137.4-36.51,141.9-82.59A197.36,197.36,0,0,0,30.73,602.1q-4,0-8,.15-4-.15-8-.15A197.68,197.68,0,0,0-127.66,662.46Z" transform="translate(321.54 -602.1)"/><path class="cls-1" d="M-54.78,722.77s21.19-2.18,27-26.7c0,0-22.87-8.26-29.3,6,0,0-7.65-14-23.63-15.15,0,0-5.78,13.88.53,23.64l5.93,14.15Z" transform="translate(321.54 -602.1)"/><path class="cls-2" d="M-83.44,642.13s19.77-8,18.57-33.12c0,0-24.26-1.62-26.48,13.91,0,0-11.21-11.3-26.91-8,0,0-1.71,14.94,7.05,22.57l9.61,12Z" transform="translate(321.54 -602.1)"/><path class="cls-2" d="M-266,739s19.76-8,18.57-33.13c0,0-24.27-1.61-26.49,13.91,0,0-11.21-11.3-26.9-8,0,0-1.72,14.94,7.05,22.57l9.61,12Z" transform="translate(321.54 -602.1)"/><path class="cls-2" d="M129.55,642.13s19.76-8,18.57-33.12c0,0-24.27-1.62-26.49,13.91,0,0-11.21-11.3-26.9-8,0,0-1.71,14.94,7,22.57l9.61,12Z" transform="translate(321.54 -602.1)"/><path class="cls-1" d="M337,752.05s19.77-7.95,18.57-33.12c0,0-24.26-1.61-26.48,13.91,0,0-11.21-11.3-26.91-8,0,0-1.71,14.94,7.05,22.57l9.61,12Z" transform="translate(321.54 -602.1)"/><path class="cls-1" d="M135.65,686.05s17.27-12.48,10-36.62c0,0-23.94,4.27-22.36,19.87,0,0-13.6-8.27-28-1.31,0,0,1.93,14.92,12.28,20.21l12.2,9.3Z" transform="translate(321.54 -602.1)"/><path class="cls-2" d="M-300.94,758.22c16.61,8.38,42.19,10.34,69.12,3.75,40.91-10,70-36.09,66.84-59.26a148,148,0,0,0-19.87-1.35A146.7,146.7,0,0,0-300.94,758.22Z" transform="translate(321.54 -602.1)"/><path class="cls-1" d="M-173.24,746.22s17.26-12.47,10.05-36.62c0,0-23.94,4.27-22.36,19.88,0,0-13.6-8.27-28-1.31,0,0,1.94,14.91,12.28,20.21l12.21,9.29Z" transform="translate(321.54 -602.1)"/></svg>