<?xml version="1.0" encoding="utf-8"?>
<!-- Generator: Adobe Illustrator 25.4.1, SVG Export Plug-In . SVG Version: 6.00 Build 0)  -->
<svg version="1.1" id="Capa_1" xmlns="http://www.w3.org/2000/svg" xmlns:xlink="http://www.w3.org/1999/xlink" x="0px" y="0px"
	 viewBox="0 0 319.1 298.7" style="enable-background:new 0 0 319.1 298.7;" xml:space="preserve">
<style type="text/css">
	.st0{fill:#E6E6E6;}
	.st1{fill:#CCCCCC;}
	.st2{fill:#031231;}
	.st3{fill:#021433;}
	.st4{fill:#B3B3B3;}
	.st5{fill:#03122F;}
	.st6{fill:#00437B;}
	.st7{fill:#031332;}
	.st8{fill:#006FBA;}
	.st9{fill:#009ADA;}
	.st10{fill:none;stroke:#021433;stroke-linecap:round;stroke-linejoin:round;}
	.st11{opacity:0.5;}
	.st12{fill:none;stroke:#021433;stroke-linecap:round;stroke-linejoin:round;stroke-dasharray:2.14,5.35;}
	.st13{fill:#021433;stroke:#021433;stroke-linecap:round;stroke-linejoin:round;}
	.st14{fill:none;stroke:#021433;stroke-linecap:round;stroke-linejoin:round;stroke-dasharray:1.94,4.84;}
	.st15{fill:none;stroke:#021433;stroke-linecap:round;stroke-linejoin:round;stroke-dasharray:2.04,5.1;}
	.st16{fill:none;stroke:#021433;stroke-linecap:round;stroke-linejoin:round;stroke-dasharray:2,5;}
</style>
<g id="base">
	<path class="st0" d="M286.1,171.8l-144.9,16.6l-15.8-9.1c-3.5-2-8.8-2.2-11.8-0.5l-46,26.6l-30.1,13.8l-9.1-4.9v5.1l0,0
		c-0.1,1.4,0.8,2.9,2.9,4.1l81.9,47.9c3.5,2,8.8,2.2,11.8,0.5l159-91.5c1.2-0.6,2-1.8,2-3.2l0,0L286.1,171.8z"/>
	<path d="M30.3,215.7l-2-1.1v5.1l0,0c0,1.4,0.8,2.7,2,3.5V215.7z"/>
	<path class="st1" d="M119.3,273.1c1.9,0.1,3.8-0.3,5.5-1.2L284,180.4c1.2-0.6,2-1.8,2-3.2l0,0v-5.4l-141,17.8h-11.3L119.3,273.1z"
		/>
	<path class="st2" d="M282.8,181l1.2-0.7c1.2-0.6,2-1.8,2-3.2l0,0v-5.4l-3.3-1L282.8,181z"/>
	<path class="st3" d="M119.7,273.5c-2.4,0-4.8-0.6-6.9-1.7l-81.8-48c-2-1.2-3.1-2.7-3.1-4.3v-0.1v-5.1c0-0.1,0.1-0.3,0.2-0.4
		c0.1-0.1,0.3-0.1,0.4,0l8.9,4.8L67.3,205l45.9-26.6c3.1-1.8,8.6-1.6,12.2,0.5l15.8,9.1L286,171.4c0.2,0.1,0.3,0.2,0.3,0.4v5.5
		c0,1.5-0.9,2.8-2.2,3.4L125,272.2C123.4,273.1,121.5,273.5,119.7,273.5z M28.7,219.3c0,0.1,0,0.1,0,0.2c-0.1,1.3,0.9,2.7,2.7,3.7
		l81.8,47.9c3.4,2,8.5,2.2,11.4,0.5l159.2-91.5c1.1-0.5,1.8-1.6,1.8-2.8v-0.1v-5.1L141,188.8l-15.9-9.2c-3.4-1.9-8.5-2.2-11.4-0.5
		l-46,26.6l-30.1,13.8c-0.1,0.1-0.2,0.1-0.3,0l-8.5-4.5L28.7,219.3z"/>
	<path class="st4" d="M284,174.9l-159.2,91.5c-3,1.8-8.3,1.5-11.8-0.5L31.2,218c-3.5-2-3.9-5.1-0.9-6.8l89.4-51.7
		c3-1.8,78.2-41.3,81.7-39.3l81.8,47.9C286.7,170.1,287.1,173.1,284,174.9z"/>
	<path class="st3" d="M119.7,267.9c-2.4,0-4.8-0.6-6.9-1.7L31,218.3c-2-1.1-3.1-2.7-3.1-4.2c0.1-1.4,0.9-2.7,2.2-3.3l89.4-51.7
		c3.1-1.8,78.5-41.4,82.1-39.3l81.8,47.9c2,1.1,3.1,2.7,3.1,4.2c-0.1,1.4-0.9,2.7-2.2,3.3L125,266.7
		C123.4,267.5,121.5,268,119.7,267.9z M124.9,158.6c-1.7,0-3.4,0.3-4.9,1.1l-89.4,51.7c-1.1,0.5-1.8,1.5-1.9,2.6
		c0,1.2,1,2.5,2.7,3.5l81.8,47.9c3.4,2,8.5,2.2,11.4,0.5l159.2-91.5l0,0c1-0.5,1.8-1.5,1.9-2.6c0-1.2-1-2.5-2.7-3.5l-81.8-47.9
		C199.3,119.4,127.1,158.6,124.9,158.6z"/>
	<polygon class="st1" points="120.3,263.2 278.9,171.7 278.9,94.8 120.3,186.3 	"/>
	<polygon class="st5" points="277.2,172.6 278.9,171.3 278.9,94.4 277.2,95.7 	"/>
	<path class="st3" d="M120.3,263.6c-0.1,0-0.1,0-0.2-0.1s-0.2-0.2-0.2-0.3v-76.9c0-0.1,0.1-0.3,0.2-0.4l158.6-91.4
		c0.1-0.1,0.3-0.1,0.4,0s0.2,0.2,0.2,0.3v76.9c0,0.1-0.1,0.3-0.2,0.3l-158.6,91.4C120.5,263.5,120.4,263.6,120.3,263.6z
		 M120.8,186.5v76l157.8-91v-76L120.8,186.5z"/>
	<polygon class="st0" points="120.3,263.2 37.2,215.2 37.2,138.3 120.3,186.3 	"/>
	<polygon class="st5" points="38.7,139.6 37.2,138.6 37.2,215.5 38.7,216.1 	"/>
	<path class="st3" d="M120.3,263.6c-0.1,0-0.1,0-0.2-0.1l-83.2-48c-0.1-0.1-0.2-0.2-0.2-0.3v-76.9c0-0.1,0.1-0.3,0.2-0.4
		c0.1-0.1,0.3-0.1,0.4,0l83.1,48c0.1,0.1,0.2,0.2,0.2,0.4v76.9c0,0.1-0.1,0.3-0.2,0.3C120.5,263.5,120.4,263.6,120.3,263.6z
		 M37.6,214.9l82.4,47.5v-76L37.6,139V214.9z"/>
	<polygon class="st6" points="78.7,91.8 18.1,127.4 78.7,162.3 139.2,197.3 	"/>
	<polygon class="st7" points="75.2,93.8 78.7,102.3 130.1,192 139.2,197.3 78.7,91.8 	"/>
	<path class="st3" d="M139.2,197.7c-0.1,0-0.1,0-0.2-0.1L17.9,127.7c-0.2-0.1-0.3-0.4-0.2-0.5c0-0.1,0.1-0.1,0.2-0.2l60.5-35.6
		c0.1,0,0.2,0,0.3,0c0.1,0,0.2,0.1,0.2,0.2l60.5,105.5C139.5,197.3,139.5,197.5,139.2,197.7C139.4,197.7,139.3,197.7,139.2,197.7z
		 M18.9,127.4l119.2,68.8L78.5,92.3L18.9,127.4z"/>
	<polygon class="st8" points="93.6,164.1 33,129.1 83.2,99.7 78.7,91.8 18.1,127.4 78.7,162.3 139.2,197.3 133.3,187.1 	"/>
	<polygon class="st7" points="117.9,178.4 123.7,188.6 139.2,197.5 133.3,187.3 	"/>
	<path class="st3" d="M139.2,197.7c-0.1,0-0.1,0-0.2-0.1L17.9,127.7c-0.2-0.1-0.3-0.4-0.2-0.5c0-0.1,0.1-0.1,0.2-0.2l60.5-35.6
		c0.1,0,0.2,0,0.3,0c0.1,0,0.2,0.1,0.2,0.2l4.5,7.9c0.1,0.2,0,0.4-0.2,0.6l-49.6,29.1l99.7,57.6c0.1,0,0.1,0.1,0.1,0.1l5.9,10.2
		c0.1,0.2,0.1,0.4-0.1,0.5C139.4,197.6,139.3,197.7,139.2,197.7z M18.9,127.4l119.2,68.8l-5-8.8L32.8,129.5
		c-0.1-0.1-0.2-0.2-0.2-0.4c0-0.1,0.1-0.3,0.2-0.4l49.8-29.3l-4.1-7.2L18.9,127.4z"/>
	<polygon class="st8" points="78.7,100.5 131.7,192.9 139.2,197.3 78.7,91.8 18.1,127.4 25.6,131.7 	"/>
	<path class="st3" d="M139.2,197.7c-0.1,0-0.1,0-0.2-0.1l-7.5-4.3c-0.1,0-0.1-0.1-0.1-0.1L78.5,101l-52.7,31c-0.1,0.1-0.3,0.1-0.4,0
		l-7.5-4.3c-0.2-0.1-0.3-0.4-0.2-0.5c0-0.1,0.1-0.1,0.2-0.2l60.5-35.6c0.1,0,0.2,0,0.3,0c0.1,0,0.2,0.1,0.2,0.2l60.5,105.5
		C139.5,197.3,139.5,197.5,139.2,197.7C139.4,197.7,139.3,197.7,139.2,197.7z M132,192.7l6.1,3.5L78.5,92.3l-59.6,35l6.7,3.9
		l52.9-31.1c0.1,0,0.2,0,0.3,0c0.1,0,0.2,0.1,0.2,0.2L132,192.7z"/>
	<polygon class="st3" points="25.6,131.7 33,129.1 79.4,101.9 78.7,100.5 	"/>
	<path class="st3" d="M25.6,132.1c-0.2,0-0.4-0.2-0.4-0.4c0-0.1,0.1-0.3,0.2-0.4l53.1-31.2c0.1,0,0.2,0,0.3,0c0.1,0,0.2,0.1,0.2,0.2
		l0.8,1.4c0.1,0.2,0.1,0.4-0.1,0.5l0,0l-46.4,27.2l-7.5,2.6C25.7,132.1,25.6,132.1,25.6,132.1z M78.5,101.1l-49.3,29l3.7-1.3
		l46-27.1L78.5,101.1z"/>
	
		<rect x="96.8" y="38" transform="matrix(0.8677 -0.4971 0.4971 0.8677 -24.1458 106.8585)" class="st9" width="183.8" height="121.6"/>
	<polygon class="st2" points="139.2,197.5 298.7,106.1 297.7,104.4 138.3,195.8 	"/>
	<path class="st3" d="M139.2,197.7h-0.1c-0.1,0-0.2-0.1-0.2-0.2L78.3,92c-0.1-0.2,0-0.4,0.2-0.5L237.9,0.1c0.1,0,0.2,0,0.3,0
		s0.2,0.1,0.2,0.2L299,105.7c0.1,0.2,0,0.4-0.1,0.5l-159.5,91.4C139.3,197.6,139.3,197.7,139.2,197.7z M79.2,91.9l60.1,104.8
		l158.8-91L238,1L79.2,91.9z"/>
	<path class="st3" d="M231.5,144.9c-0.1,0-0.3-0.1-0.4-0.2L170.7,39.4c-0.1-0.2-0.1-0.4,0.1-0.6c0.2-0.1,0.4-0.1,0.6,0.1
		c0,0,0,0,0,0.1l60.5,105.4c0.1,0.2,0,0.4-0.1,0.6C231.7,144.9,231.6,144.9,231.5,144.9z"/>
	<path class="st3" d="M255.2,131.4c-0.1,0-0.3-0.1-0.4-0.2L194.3,25.7c-0.1-0.2-0.1-0.4,0.1-0.6c0.2-0.1,0.4-0.1,0.6,0.1
		c0,0,0,0,0,0.1l60.5,105.5c0.1,0.2,0,0.4-0.1,0.5C255.3,131.4,255.3,131.4,255.2,131.4z"/>
	<path class="st3" d="M276.8,118.9c-0.1,0-0.3-0.1-0.3-0.2L216,13.5c-0.1-0.2,0-0.4,0.1-0.6c0.2-0.1,0.4,0,0.6,0.1l60.4,105.2
		c0.1,0.2,0,0.4-0.1,0.5l0,0C276.9,118.9,276.8,118.9,276.8,118.9z"/>
	<path class="st3" d="M186.3,170.4c-0.1,0-0.3-0.1-0.4-0.2L125.5,64.8c-0.1-0.2,0-0.4,0.2-0.6c0.2-0.1,0.4,0,0.6,0.2l60.5,105.4
		c0.1,0.2,0,0.4-0.1,0.6C186.4,170.4,186.4,170.4,186.3,170.4z"/>
	<path class="st3" d="M210,156.9c-0.1,0-0.3-0.1-0.4-0.2L149.1,51.2c-0.1-0.2,0-0.4,0.1-0.5s0.4,0,0.6,0.1l60.5,105.5
		c0.1,0.2,0.1,0.4-0.1,0.5l0,0C210.1,156.8,210.1,156.9,210,156.9z"/>
	<path class="st3" d="M161.9,184.6c-0.1,0-0.3-0.1-0.4-0.2L101.1,79c-0.1-0.2,0-0.4,0.1-0.5l0,0c0.2-0.1,0.4,0,0.5,0.2L162.3,184
		c0.1,0.2,0,0.4-0.1,0.6C162.1,184.6,162,184.6,161.9,184.6z"/>
	<line class="st10" x1="77.3" y1="91.9" x2="78.3" y2="91.9"/>
	<line class="st10" x1="74.1" y1="237.1" x2="75.1" y2="237.1"/>
	<line class="st10" x1="279.2" y1="117.1" x2="278.2" y2="117.1"/>
	<line class="st10" x1="278.2" y1="172.1" x2="279.2" y2="172.1"/>
</g>
<g id="luz">
	<g class="st11">
		
			<image style="overflow:visible;enable-background:new    ;" width="155" height="198" xlink:href="CDAEF83AB739E890.png"  transform="matrix(0.9944 0 0 0.9944 1.8827 101.7327)">
		</image>
	</g>
</g>
<g id="alturamin">
	<line class="st10" x1="315.5" y1="172.1" x2="315.5" y2="117.1"/>
	<line class="st10" x1="315.5" y1="117.1" x2="314.5" y2="117.1"/>
	<line class="st12" x1="309.1" y1="117.1" x2="281.8" y2="117.1"/>
	<polygon class="st13" points="318.6,120.7 312.3,120.7 315.5,117.1 	"/>
	<polygon class="st13" points="312.3,168.5 318.6,168.5 315.5,172.1 	"/>
	<line id="puntos" class="st12" x1="284.5" y1="172.1" x2="311.8" y2="172.1"/>
	<line class="st10" x1="314.5" y1="172.1" x2="315.5" y2="172.1"/>
</g>
<g id="altura">
	<line class="st10" x1="3.7" y1="237.1" x2="3.7" y2="91.9"/>
	<line class="st10" x1="3.7" y1="91.9" x2="4.7" y2="91.9"/>
	<line id="puntos_00000013915443361585663180000014355398634240465051_" class="st14" x1="9.5" y1="91.9" x2="74.8" y2="91.9"/>
	<line class="st10" x1="3.7" y1="237.1" x2="4.7" y2="237.1"/>
	<line id="puntos_00000174571910631602386320000012862605075729686405_" class="st15" x1="9.8" y1="237.1" x2="71.5" y2="237.1"/>
	<polygon class="st13" points="0.5,95.5 6.8,95.5 3.7,91.9 	"/>
	<polygon class="st13" points="6.8,233.5 0.5,233.5 3.7,237.1 	"/>
</g>
<g id="ancho">
	<line class="st10" x1="43.2" y1="181.3" x2="114.8" y2="222.6"/>
	<polygon class="st13" points="41.4,184 44.8,178.7 40,179.4 	"/>
	<polygon class="st13" points="116.3,219.8 113.2,225.4 117.9,224.4 	"/>
</g>
<g id="largo">
	<line class="st10" x1="140.5" y1="283" x2="298.7" y2="192.6"/>
	<polygon class="st13" points="145.1,284.3 142.3,278.6 140.5,283 	"/>
	<polygon class="st13" points="294,192 297.5,197.2 298.7,192.6 	"/>
	<line id="puntos_00000013192947619683264800000013734060689978844057_" class="st16" x1="140.5" y1="283" x2="120.3" y2="263.2"/>
	
		<line id="puntos_00000047059290263405443780000015778539021287187625_" class="st16" x1="298.7" y1="192.6" x2="278.2" y2="172.1"/>
</g>
</svg>
