<svg id="Capa_1" data-name="Capa 1" xmlns="http://www.w3.org/2000/svg" viewBox="0 0 1103.59 208.33"><defs><style>.cls-1{fill:#5e7a10;}.cls-2{fill:#6c9119;}</style></defs><path class="cls-1" d="M483.68,723.23a133.31,133.31,0,0,0-66.86,17.86,154.13,154.13,0,0,0-231.41-64.6A154,154,0,0,0,52.5,600.38c-1.52,0-3,0-4.56.07s-3-.07-4.56-.07a154,154,0,0,0-132.9,76.11,153.38,153.38,0,0,0-89.74-28.82,154.1,154.1,0,0,0-141.67,93.42,133.31,133.31,0,0,0-66.86-17.86,133.86,133.86,0,0,0-116.06,67H599.74A133.88,133.88,0,0,0,483.68,723.23Z" transform="translate(503.85 -581.95)"/><path class="cls-2" d="M47.94,691.26c52.43,0,98.37-13.65,124-34.13A153.74,153.74,0,0,0,52.5,600.38c-1.52,0-3,0-4.56.07s-3-.07-4.56-.07A153.72,153.72,0,0,0-76,657.13C-50.42,677.61-4.48,691.26,47.94,691.26Z" transform="translate(503.85 -581.95)"/><path class="cls-2" d="M-91.66,675a153.3,153.3,0,0,0-87.6-27.32,154,154,0,0,0-134.59,79c22.5,7,49.19,11.1,77.8,11.1C-161.76,737.81-100.49,710.39-91.66,675Z" transform="translate(503.85 -581.95)"/><path class="cls-2" d="M188.61,675A154.11,154.11,0,0,1,410.8,726.71c-22.5,7-49.19,11.1-77.81,11.1C258.71,737.81,197.43,710.39,188.61,675Z" transform="translate(503.85 -581.95)"/><path class="cls-1" d="M-23.17,691.55s19.31-2,24.61-24.33c0,0-20.84-7.53-26.7,5.51,0,0-7-12.73-21.54-13.81,0,0-5.26,12.66.49,21.54l5.4,12.9Z" transform="translate(503.85 -581.95)"/><path class="cls-1" d="M-249.48,744.93s19.31-2,24.61-24.32c0,0-20.84-7.53-26.7,5.5,0,0-7-12.72-21.54-13.8,0,0-5.26,12.65.49,21.54l5.4,12.9Z" transform="translate(503.85 -581.95)"/><path class="cls-1" d="M481.48,730.66s19.31-2,24.61-24.32c0,0-20.84-7.53-26.7,5.5,0,0-7-12.72-21.53-13.8,0,0-5.27,12.65.48,21.54l5.41,12.9Z" transform="translate(503.85 -581.95)"/><path class="cls-1" d="M-374.33,730.66s19.31-2,24.61-24.32c0,0-20.85-7.53-26.7,5.5,0,0-7-12.72-21.54-13.8,0,0-5.26,12.65.49,21.54l5.4,12.9Z" transform="translate(503.85 -581.95)"/><path class="cls-2" d="M35.83,612.17s18-7.24,16.92-30.18c0,0-22.11-1.47-24.13,12.67,0,0-10.22-10.29-24.52-7.3,0,0-1.56,13.61,6.43,20.56l8.76,10.9Z" transform="translate(503.85 -581.95)"/><path class="cls-2" d="M119.43,634.31s18-7.25,16.92-30.18c0,0-22.11-1.47-24.14,12.67,0,0-10.21-10.29-24.51-7.3,0,0-1.56,13.61,6.42,20.56l8.76,10.9Z" transform="translate(503.85 -581.95)"/><path class="cls-2" d="M253.54,657.61s18-7.25,16.91-30.18c0,0-22.11-1.47-24.13,12.67,0,0-10.21-10.29-24.51-7.3,0,0-1.56,13.61,6.42,20.56l8.76,10.9Z" transform="translate(503.85 -581.95)"/><path class="cls-2" d="M-127.44,659.45s18-7.24,16.92-30.18c0,0-22.11-1.47-24.13,12.68,0,0-10.21-10.3-24.51-7.31,0,0-1.56,13.61,6.42,20.56l8.76,10.9Z" transform="translate(503.85 -581.95)"/><path class="cls-1" d="M133.83,687.61s15.73-11.37,9.16-33.37c0,0-21.82,3.89-20.38,18.11,0,0-12.39-7.54-25.55-1.19,0,0,1.76,13.59,11.18,18.41L119.37,698Z" transform="translate(503.85 -581.95)"/><path class="cls-1" d="M369,741s15.73-11.37,9.16-33.37c0,0-21.81,3.89-20.37,18.11,0,0-12.4-7.54-25.56-1.19,0,0,1.77,13.58,11.19,18.41l11.12,8.47Z" transform="translate(503.85 -581.95)"/></svg>