<?xml version="1.0" standalone="no"?>
<!DOCTYPE svg PUBLIC "-//W3C//DTD SVG 20010904//EN"
 "http://www.w3.org/TR/2001/REC-SVG-20010904/DTD/svg10.dtd">
<svg version="1.0" xmlns="http://www.w3.org/2000/svg"
 width="1144.000000pt" height="1144.000000pt" viewBox="0 0 1144.000000 1144.000000"
 preserveAspectRatio="xMidYMid meet">
<metadata>
Created by potrace 1.14, written by Peter Selinger 2001-2017
</metadata>
<g transform="translate(0.000000,1144.000000) scale(0.100000,-0.100000)"
fill="#000000" stroke="none">
<path d="M9309 11436 c-2 -2 -17 -7 -34 -9 -16 -3 -39 -8 -50 -10 -42 -10
-461 -117 -493 -126 -18 -5 -35 -10 -37 -10 -3 -1 -6 -1 -7 -2 -2 0 -10 -2
-18 -4 -8 -2 -62 -15 -120 -30 -121 -30 -134 -34 -157 -39 -10 -2 -62 -16
-117 -30 -54 -14 -102 -23 -107 -20 -5 3 -9 1 -9 -4 0 -5 -6 -9 -12 -9 -7 0
-130 -31 -272 -67 -143 -37 -267 -68 -275 -70 -9 -2 -23 -6 -31 -9 -13 -6
-177 -47 -249 -63 -14 -3 -104 -25 -200 -50 -97 -25 -183 -47 -191 -49 -8 -2
-71 -17 -140 -35 -69 -18 -134 -34 -144 -36 -10 -2 -34 -8 -52 -14 -18 -6 -45
-13 -60 -16 -16 -3 -71 -16 -124 -30 -52 -14 -106 -28 -120 -30 -14 -3 -38 -9
-55 -14 -33 -11 -266 -69 -302 -76 -12 -2 -33 -8 -47 -14 -13 -5 -27 -6 -30
-3 -3 4 -6 1 -6 -6 0 -7 -4 -10 -8 -7 -5 3 -49 -6 -98 -20 -49 -13 -98 -26
-109 -28 -11 -2 -58 -14 -105 -26 -86 -22 -107 -27 -147 -36 -12 -2 -34 -9
-48 -14 -14 -5 -25 -7 -25 -5 0 2 -11 0 -25 -5 -14 -5 -36 -12 -50 -14 -13 -2
-57 -14 -98 -25 -41 -11 -89 -23 -108 -26 -18 -3 -36 -8 -41 -11 -4 -3 -17 -7
-28 -9 -19 -4 -120 -29 -455 -115 -88 -23 -171 -43 -185 -46 -14 -3 -48 -12
-76 -20 -28 -8 -60 -16 -70 -18 -11 -3 -37 -9 -59 -15 -88 -22 -131 -33 -148
-36 -10 -2 -51 -13 -91 -24 -40 -11 -85 -22 -100 -25 -15 -3 -53 -12 -84 -21
-31 -10 -64 -18 -73 -20 -9 -2 -117 -29 -240 -60 -123 -31 -231 -58 -239 -60
-8 -2 -51 -13 -95 -25 -44 -11 -89 -22 -100 -25 -11 -2 -38 -9 -60 -15 -22 -6
-47 -12 -55 -14 -8 -2 -107 -27 -220 -56 -113 -28 -212 -53 -220 -56 -8 -2
-44 -11 -80 -19 -36 -9 -69 -18 -75 -19 -5 -1 -19 -5 -30 -9 -11 -3 -31 -8
-45 -11 -14 -3 -50 -12 -80 -20 -30 -8 -56 -13 -59 -11 -2 3 -10 0 -18 -6 -7
-6 -13 -8 -13 -5 0 4 -10 1 -22 -6 -13 -7 -25 -13 -28 -13 -3 0 -19 -8 -36
-17 -64 -35 -122 -122 -141 -213 -10 -48 -11 -7185 -1 -7234 19 -92 87 -177
178 -225 28 -14 50 -24 50 -22 0 3 29 -4 65 -14 36 -10 65 -16 65 -14 0 3 8 0
18 -5 11 -6 30 -12 44 -15 14 -2 135 -32 269 -66 134 -34 251 -63 259 -65 8
-2 33 -8 55 -14 22 -6 49 -12 60 -14 11 -2 27 -7 35 -10 8 -3 44 -12 80 -20
36 -8 182 -45 325 -82 273 -70 486 -124 514 -130 9 -2 50 -13 91 -24 106 -27
322 -82 340 -86 8 -2 60 -15 115 -30 55 -15 107 -28 115 -30 8 -2 68 -17 134
-34 65 -17 128 -33 140 -36 11 -2 21 -4 21 -5 0 -1 7 -3 15 -5 8 -1 44 -11 80
-20 36 -9 75 -19 87 -21 12 -2 34 -9 48 -14 14 -5 25 -7 25 -5 0 2 12 0 28 -6
15 -6 37 -13 49 -15 12 -2 93 -23 180 -45 87 -23 165 -43 173 -44 36 -8 226
-57 240 -62 8 -3 24 -8 35 -10 11 -2 128 -31 260 -64 132 -34 251 -63 264 -66
13 -2 32 -8 43 -14 10 -5 18 -8 18 -5 0 2 29 -4 65 -14 36 -10 65 -17 65 -15
0 3 12 0 28 -6 15 -6 34 -12 42 -14 8 -2 35 -8 60 -15 25 -7 53 -14 62 -15 21
-4 133 -33 173 -45 26 -7 350 -88 379 -95 6 -1 18 -5 26 -8 8 -3 26 -8 40 -10
31 -6 55 -12 105 -26 22 -6 49 -12 60 -14 11 -2 27 -7 35 -10 13 -4 273 -71
320 -82 8 -1 125 -31 260 -65 135 -34 252 -64 260 -66 8 -2 96 -24 195 -49
184 -47 202 -52 233 -59 9 -2 37 -9 62 -16 55 -15 78 -20 110 -27 14 -2 31 -6
38 -9 7 -2 14 -4 17 -4 3 -1 34 -10 70 -20 36 -10 68 -19 70 -19 14 -2 63 -14
85 -21 14 -5 39 -11 55 -14 17 -3 44 -9 60 -14 72 -22 275 -7 275 20 0 4 7 8
16 8 23 0 100 83 126 137 l23 48 2 5455 c2 4869 1 5462 -13 5520 -26 109 -79
180 -163 217 -32 14 -202 29 -212 19z m-644 -821 c17 -3 40 -13 53 -21 48 -31
255 -257 292 -318 l25 -41 0 -1085 0 -1085 -27 -40 c-28 -42 -33 -48 -175
-203 -209 -228 -203 -224 -389 -237 -44 -3 -90 -7 -103 -10 -12 -2 -61 -7
-110 -10 -48 -3 -97 -7 -108 -9 -11 -3 -58 -7 -104 -11 -46 -3 -104 -8 -129
-10 -25 -3 -72 -7 -105 -10 -81 -6 -216 -18 -325 -29 -25 -3 -79 -8 -120 -11
-41 -4 -95 -8 -120 -11 -25 -2 -72 -6 -105 -9 -115 -9 -200 -17 -235 -21 -104
-12 -210 -13 -250 -2 -38 9 -62 29 -153 122 -114 117 -157 171 -174 221 -6 17
-10 103 -10 192 l-1 162 32 -13 c17 -8 74 -34 126 -59 124 -60 138 -63 172
-35 39 32 40 61 6 153 -17 44 -33 91 -38 105 -5 14 -36 99 -70 190 -34 91 -65
176 -70 190 -8 23 -29 81 -94 255 -46 122 -42 209 13 252 22 18 106 41 171 48
30 3 73 8 95 11 22 2 56 6 75 8 19 2 53 7 75 10 22 3 65 8 95 11 30 3 69 9 85
12 17 3 37 5 45 5 8 0 51 4 95 10 44 6 98 11 120 13 65 3 125 16 125 26 0 5 6
9 13 9 16 0 55 58 61 92 7 43 -12 94 -47 125 -38 33 -55 46 -207 159 -63 47
-128 95 -144 107 -16 12 -60 46 -98 75 -38 28 -72 52 -77 52 -5 0 -11 4 -13 8
-1 4 -40 36 -85 70 -78 59 -83 65 -83 101 0 68 7 71 353 147 12 3 33 7 47 10
14 3 50 12 80 20 30 8 64 16 75 18 11 2 47 9 80 16 33 7 65 13 70 15 6 1 28 7
50 13 22 6 51 13 65 16 36 7 199 42 305 66 50 11 99 22 110 25 11 2 31 6 45
10 14 3 34 7 45 10 11 2 70 16 130 30 61 14 121 27 135 30 40 8 68 14 195 43
117 28 149 30 210 17z m-2501 -567 c-3 -18 -10 -56 -15 -84 -5 -28 -12 -64
-15 -80 -7 -44 -62 -219 -96 -304 -36 -93 -119 -264 -130 -268 -4 -2 -8 -8 -8
-13 0 -13 -66 -112 -129 -194 -49 -64 -203 -222 -261 -269 -62 -50 -221 -152
-289 -186 -77 -39 -182 -76 -236 -86 -16 -2 -37 -7 -45 -9 -57 -15 -198 -21
-275 -11 -92 12 -109 16 -215 52 -8 3 -16 5 -17 5 -6 -2 -142 75 -178 100 -92
63 -202 185 -267 294 -43 72 -100 185 -94 185 3 0 -4 19 -14 43 -24 55 -60
195 -65 253 -6 67 33 100 113 97 6 -1 12 3 12 8 0 5 3 8 8 7 4 -1 30 3 57 10
28 6 61 14 75 16 14 2 52 11 85 19 33 9 74 18 90 21 55 9 90 17 104 22 8 2 66
16 130 30 64 14 125 28 136 30 11 3 31 7 45 10 24 5 100 22 130 29 8 2 47 11
85 20 39 9 79 18 90 20 22 6 36 9 105 23 25 5 128 29 230 52 102 23 192 43
200 45 33 8 166 37 181 40 9 2 34 8 55 14 21 6 40 8 42 6 3 -2 12 0 21 4 9 5
30 11 46 14 17 3 62 13 100 22 39 9 81 19 94 21 13 3 40 9 60 13 59 15 61 14
55 -21z m-2755 -616 c-13 -16 -32 -40 -41 -53 -46 -65 -372 -507 -386 -524
-48 -58 -77 -110 -73 -134 7 -58 45 -74 132 -56 35 7 67 11 71 9 4 -3 8 0 8 6
0 6 3 9 8 7 4 -3 45 3 92 14 47 10 101 21 120 24 19 3 42 7 50 10 8 2 31 6 50
9 19 3 46 8 60 11 14 3 48 8 75 11 42 5 54 2 73 -16 12 -11 23 -26 23 -33 1
-7 2 -19 3 -27 1 -12 -14 -87 -27 -135 -6 -19 -29 -90 -34 -105 -3 -8 -7 -21
-9 -29 -1 -7 -12 -41 -23 -75 -58 -173 -93 -283 -96 -299 -3 -10 -14 -44 -26
-75 -11 -31 -22 -64 -24 -72 -2 -8 -9 -31 -15 -50 -21 -63 -20 -87 1 -114 23
-29 77 -36 101 -13 7 6 33 28 58 48 25 20 56 46 69 58 13 11 27 21 31 21 4 0
6 -84 5 -187 -1 -215 -8 -242 -85 -323 -23 -25 -69 -73 -101 -106 -79 -85
-114 -101 -239 -109 -30 -2 -55 -4 -55 -5 0 -1 -27 -3 -60 -5 -33 -2 -89 -6
-125 -9 -36 -4 -90 -8 -120 -11 -100 -9 -164 -15 -210 -19 -268 -27 -373 -27
-419 -2 -72 38 -205 196 -218 256 -2 8 -4 367 -4 797 -1 765 0 782 20 827 28
63 190 239 238 257 30 11 311 78 338 81 6 0 20 4 33 9 13 5 37 11 55 14 18 3
145 31 282 62 306 68 328 72 337 67 5 -3 8 0 8 7 0 7 3 10 6 7 3 -3 17 -3 32
2 37 10 38 6 11 -28z m2381 -1044 c8 -2 22 -8 30 -13 20 -13 128 -64 138 -65
4 -1 14 -7 22 -14 8 -8 21 -15 28 -17 11 -4 14 -55 13 -264 -1 -143 -6 -276
-11 -296 -10 -35 -49 -93 -93 -135 -12 -12 -62 -64 -110 -117 -97 -105 -134
-127 -230 -134 -53 -4 -58 -3 -54 14 13 43 21 115 32 263 3 36 7 85 10 110 2
25 7 77 10 115 13 147 16 181 20 215 2 19 7 69 10 110 10 126 23 177 56 209
25 25 36 29 72 26 23 -1 49 -5 57 -7z m-1602 -206 c13 -8 22 -25 23 -41 0 -14
2 -34 4 -43 2 -9 6 -77 10 -150 8 -143 11 -186 19 -318 3 -47 8 -130 11 -185
6 -119 12 -195 17 -215 2 -9 -3 -14 -12 -12 -8 2 -22 5 -32 7 -59 12 -182 125
-256 234 l-37 54 -2 277 -3 276 56 49 c103 92 144 105 202 67z m757 -143 c21
-23 39 -53 125 -214 20 -38 48 -90 62 -115 14 -25 46 -85 73 -135 26 -49 52
-96 58 -102 5 -7 7 -13 4 -13 -4 0 5 -16 18 -36 14 -20 25 -41 25 -46 0 -6 9
-23 21 -39 l20 -29 -23 -1 c-13 -1 -34 -2 -48 -4 -14 -1 -65 -6 -115 -10 -49
-3 -103 -8 -120 -10 -37 -4 -141 -13 -215 -20 -30 -3 -82 -7 -115 -10 -33 -3
-87 -8 -120 -10 -33 -3 -88 -8 -122 -10 -35 -3 -63 -2 -63 3 0 5 18 44 41 88
166 321 216 416 244 469 18 33 51 96 74 140 66 125 123 159 176 104z m3716
-835 c38 -21 76 -58 199 -193 47 -52 90 -99 95 -105 32 -33 65 -85 69 -107 2
-13 5 -24 6 -24 2 0 3 -479 4 -1065 1 -933 -1 -1071 -14 -1110 -16 -46 -26
-61 -95 -134 -22 -23 -83 -89 -135 -145 -52 -56 -108 -109 -125 -116 -31 -15
-122 -35 -128 -28 -2 2 -42 6 -88 9 -46 2 -102 6 -124 8 -22 3 -80 7 -130 10
-49 4 -117 9 -151 12 -33 3 -98 7 -145 9 -46 3 -113 7 -149 10 -69 6 -155 12
-285 20 -44 3 -100 7 -125 10 -25 2 -88 7 -140 11 -163 10 -192 12 -290 20
-111 8 -155 11 -192 13 -20 1 -35 13 -59 49 -18 26 -36 49 -39 52 -4 3 -9 10
-11 17 -8 25 -167 192 -239 251 l-75 62 0 977 c1 974 1 978 22 1018 22 42 26
46 126 159 123 138 173 184 213 195 41 11 157 21 414 36 52 3 113 7 135 10 22
2 87 7 145 11 58 3 123 7 145 9 22 2 85 6 140 9 55 3 125 8 155 11 30 2 91 7
135 10 104 7 206 14 275 19 30 2 98 7 150 11 52 4 96 8 97 9 2 1 42 2 91 1 66
-1 97 -6 123 -21z m-2923 -226 c40 -30 228 -236 256 -280 21 -33 21 -35 24
-910 l2 -877 -62 28 c-70 31 -98 43 -113 47 -5 1 -44 15 -85 29 -135 49 -301
96 -312 89 -5 -3 -8 -1 -8 3 0 5 -8 9 -17 10 -10 0 -52 8 -93 16 -41 8 -93 18
-115 21 -22 3 -51 8 -65 11 -53 11 -212 19 -360 18 -161 -1 -191 -4 -365 -29
-25 -4 -73 -13 -95 -19 -3 -1 -23 -5 -45 -9 -22 -4 -47 -10 -55 -13 -8 -3 -26
-8 -40 -10 -13 -2 -30 -9 -37 -15 -7 -6 -13 -8 -13 -5 0 4 -20 -2 -45 -13 -25
-11 -45 -17 -45 -13 0 3 -6 1 -12 -5 -7 -6 -16 -11 -21 -11 -4 0 -20 -7 -36
-16 -23 -11 -31 -12 -38 -2 -5 7 -8 357 -8 794 1 624 4 785 14 797 8 9 10 16
7 16 -7 0 28 54 49 76 5 6 46 50 89 97 111 120 117 123 396 143 41 2 113 7
160 9 47 3 110 7 140 10 30 3 89 7 130 10 41 2 75 4 75 5 0 1 27 3 60 5 142 8
263 16 300 20 22 2 90 7 150 10 61 4 111 8 113 10 5 5 102 -33 120 -47z
m-2332 -133 c34 -14 84 -61 205 -191 38 -41 56 -71 67 -107 3 -12 7 -400 8
-862 l3 -840 -27 -23 c-68 -57 -148 -143 -190 -202 -54 -75 -60 -81 -87 -75
-19 4 -138 13 -265 20 -92 5 -232 15 -290 20 -30 3 -91 8 -135 10 -85 5 -164
11 -284 20 -41 3 -93 14 -115 24 -58 25 -193 166 -227 235 -18 38 -19 69 -16
840 2 780 3 802 22 838 26 48 184 220 196 212 5 -3 9 -1 9 3 0 15 82 33 175
38 50 3 113 7 140 10 78 6 245 17 305 21 30 1 55 3 55 4 0 1 29 3 65 5 127 7
255 16 257 19 8 8 96 -5 129 -19z m1551 -2010 c48 -3 99 -7 113 -9 14 -2 52
-7 85 -11 33 -4 69 -10 80 -12 11 -3 36 -8 55 -13 19 -4 55 -12 80 -18 25 -5
83 -22 130 -36 47 -15 93 -28 103 -31 10 -2 32 -11 49 -20 17 -8 35 -15 40
-15 7 0 43 -15 138 -58 19 -9 37 -17 40 -17 20 -3 231 -120 303 -168 173 -116
362 -338 398 -470 25 -89 15 -177 -31 -268 -25 -50 -224 -249 -249 -249 -5 0
-11 -3 -13 -7 -20 -46 -388 -201 -538 -227 -14 -3 -25 -5 -25 -6 0 -1 -13 -3
-30 -5 -16 -2 -46 -6 -65 -9 -105 -16 -174 -20 -360 -19 -112 1 -227 5 -255 8
-27 3 -70 8 -95 11 -25 2 -56 7 -70 9 -14 2 -41 7 -60 10 -192 32 -512 147
-705 253 -199 110 -371 263 -477 423 -75 113 -98 223 -74 347 9 44 37 114 53
130 7 7 13 18 13 23 0 15 129 141 191 187 77 56 174 106 273 141 97 34 311 88
387 97 30 3 57 8 60 10 13 8 149 18 246 18 57 1 103 5 103 9 0 5 4 6 9 3 5 -4
49 -8 98 -11z m-2477 -449 c47 -4 108 -9 135 -11 28 -3 79 -7 115 -10 36 -3
85 -7 110 -10 25 -2 79 -7 120 -10 41 -3 98 -8 125 -11 28 -2 82 -6 120 -9 39
-2 81 -7 94 -9 26 -6 43 -25 34 -39 -5 -9 -4 -134 2 -182 2 -16 7 -50 10 -75
3 -25 6 -49 6 -55 1 -5 4 -14 8 -20 4 -5 14 -36 21 -67 7 -32 17 -58 22 -58 4
0 7 -3 6 -7 -4 -17 46 -112 109 -206 56 -85 228 -277 248 -277 4 0 14 -7 23
-16 18 -19 193 -134 267 -176 53 -30 203 -104 270 -133 22 -9 49 -21 60 -26
122 -52 394 -125 545 -146 202 -27 385 -34 570 -20 95 8 116 10 200 22 43 5
61 8 130 20 17 3 59 12 93 21 34 8 67 16 72 17 6 2 15 5 20 8 6 4 28 12 50 19
22 7 56 20 75 28 19 9 37 16 40 17 25 5 220 119 261 152 84 69 168 142 188
167 14 15 30 33 36 40 41 42 128 202 139 257 3 13 10 40 16 59 20 65 27 198
15 285 -11 84 -11 90 4 87 8 -2 47 -5 85 -7 75 -5 161 -12 236 -20 25 -2 81
-7 125 -10 44 -3 95 -8 112 -10 18 -3 66 -7 105 -10 138 -11 183 -15 233 -19
28 -3 79 -7 115 -11 36 -3 85 -7 110 -9 25 -3 77 -7 115 -10 156 -13 202 -17
240 -21 89 -9 201 -18 217 -17 10 0 20 -4 23 -9 4 -5 11 -7 16 -3 12 7 78 -32
107 -65 13 -14 74 -80 136 -146 161 -171 192 -209 207 -252 10 -30 12 -263 12
-1088 -1 -577 -3 -1057 -6 -1065 -9 -36 -34 -77 -67 -111 -19 -20 -62 -67 -95
-104 -185 -208 -219 -223 -414 -178 -58 13 -115 25 -126 28 -11 2 -21 4 -22 4
-2 1 -5 1 -8 2 -2 1 -42 10 -87 20 -122 29 -119 28 -178 40 -30 5 -68 14 -85
19 -16 5 -46 12 -65 15 -19 3 -43 8 -52 11 -9 3 -25 7 -35 9 -27 5 -205 46
-228 52 -11 3 -28 5 -38 5 -9 -1 -17 4 -17 9 0 6 -4 8 -9 5 -4 -3 -33 1 -62 8
-30 8 -67 17 -84 20 -16 3 -48 10 -70 15 -22 5 -83 19 -135 31 -52 12 -115 25
-140 30 -25 5 -52 11 -60 14 -8 3 -26 7 -40 10 -14 2 -64 13 -112 25 -48 11
-98 23 -110 25 -108 21 -275 61 -282 67 -5 5 -1 12 10 16 10 4 39 22 64 38
163 109 282 269 333 447 28 94 30 110 33 276 4 206 -3 231 -44 149 -54 -108
-177 -255 -287 -344 -79 -63 -200 -133 -320 -184 -34 -15 -147 -49 -179 -55
-17 -2 -38 -7 -46 -9 -16 -5 -48 -10 -125 -20 -27 -4 -61 -9 -75 -11 -41 -5
-251 -17 -310 -16 -76 0 -270 11 -297 16 -11 3 -43 8 -70 12 -26 3 -57 8 -68
11 -11 2 -31 6 -45 8 -32 5 -143 30 -195 45 -22 6 -48 12 -58 15 -27 6 -169
57 -190 67 -10 5 -27 11 -37 13 -44 9 -452 218 -458 236 -2 5 -9 9 -15 9 -9 0
-103 65 -167 116 -61 48 -242 236 -289 299 -29 39 -58 77 -65 85 -6 9 -28 42
-46 74 -19 32 -43 72 -53 89 -21 34 -67 147 -71 171 -4 31 -16 28 -17 -5 -8
-221 7 -341 62 -500 25 -74 97 -222 110 -227 5 -2 9 -8 9 -14 0 -11 37 -62 97
-135 43 -51 43 -52 16 -47 -16 3 -44 9 -63 14 -19 5 -51 12 -70 15 -19 3 -53
11 -75 17 -22 5 -49 12 -60 13 -11 2 -54 11 -95 20 -41 10 -82 19 -90 20 -8 2
-15 4 -15 5 0 1 -11 3 -25 6 -14 2 -64 13 -111 24 -48 11 -95 22 -105 24 -11
2 -57 13 -104 24 -103 24 -307 71 -335 77 -70 14 -141 38 -160 53 -13 10 -45
42 -72 72 -26 29 -69 76 -95 103 -26 28 -57 71 -69 95 -20 44 -21 54 -21 812
0 776 3 831 37 860 8 7 15 16 15 21 0 4 34 42 74 83 77 77 130 105 194 100 15
-1 65 -5 112 -8z"/>
<path d="M3324 3582 c-1 -20 -3 -55 -3 -77 -3 -71 10 -211 22 -250 3 -11 8
-31 11 -45 11 -68 92 -270 108 -270 4 0 8 -7 8 -15 0 -9 5 -21 10 -28 6 -7 27
-35 48 -62 20 -28 46 -61 57 -75 37 -47 230 -235 275 -270 25 -19 47 -37 50
-40 3 -3 39 -28 80 -55 41 -28 77 -53 78 -57 2 -5 8 -8 12 -8 5 0 32 -13 60
-30 28 -16 57 -30 65 -30 8 0 15 -3 15 -8 0 -4 15 -13 33 -21 17 -7 48 -20 67
-29 19 -9 37 -17 40 -17 3 -1 14 -5 25 -10 109 -45 271 -101 365 -126 108 -29
113 -31 130 -33 13 -3 86 -18 100 -21 3 -1 28 -5 55 -10 28 -4 59 -9 70 -11
62 -11 179 -18 320 -18 179 0 271 8 410 35 28 5 59 11 70 13 11 2 40 10 65 17
25 7 50 13 56 15 35 7 160 50 162 56 2 5 12 8 22 8 10 0 41 11 68 25 28 14 55
25 61 25 6 0 11 3 11 8 0 4 12 13 28 19 45 20 137 85 189 133 40 37 80 84 141
165 27 37 92 196 107 265 45 197 46 204 51 354 3 111 2 127 -11 116 -8 -6 -17
-22 -21 -33 -10 -33 -134 -193 -211 -273 -76 -79 -198 -181 -286 -238 -53 -34
-213 -115 -241 -121 -6 -1 -18 -5 -26 -8 -21 -10 -269 -67 -305 -71 -34 -4
-120 -17 -148 -22 -111 -20 -435 -20 -587 0 -75 10 -148 22 -152 25 -2 1 -18
4 -37 7 -19 2 -53 9 -75 16 -23 6 -50 13 -61 15 -35 6 -254 83 -313 109 -112
51 -148 69 -237 118 -96 53 -254 152 -270 170 -5 6 -37 29 -69 51 -54 36 -228
200 -267 251 -74 96 -133 198 -178 309 -40 98 -46 104 -47 57z"/>
</g>
</svg>
